<svg xmlns="http://www.w3.org/2000/svg" xmlns:svgjs="http://svgjs.com/svgjs" xmlns:xlink="http://www.w3.org/1999/xlink" width="288" height="288"><rect width="288" height="288" fill="#f5f5f5" rx="0" ry="0" transform="matrix(.27 0 0 .27 105.12 105.12)"/><svg xmlns="http://www.w3.org/2000/svg" width="288" height="288" data-name="Layer 1" transform="translate(77.162 77.162) scale(.4652)" viewBox="0 0 512 512"><g fill="#ab0c0c" class="color000 svgShape" data-name="&amp;lt;Group&amp;gt;"><polygon points="210 318.341 315.243 256 210 193.659 210 318.341" class="color000 svgShape" data-name="&amp;lt;Path&amp;gt;"/><path d="M385,90H128a38,38,0,0,0-38,38V385a38,38,0,0,0,38,38H385a38,38,0,0,0,38-38V128A38,38,0,0,0,385,90ZM334.547,262.883l-128.94,76.378a8,8,0,0,1-4.077,1.117,7.156,7.156,0,0,1-3.726-1.05,7.789,7.789,0,0,1-3.8-6.95V179.622a7.714,7.714,0,0,1,11.725-6.883l128.881,76.378a8,8,0,0,1-.059,13.766Z" class="color000 svgShape" data-name="&amp;lt;Compound Path&amp;gt;"/></g></svg></svg>